<svg width="180" height="180" viewBox="0 0 180 180" fill="none" xmlns="http://www.w3.org/2000/svg">
<g clip-path="url(#clip0_1144_672)">
<g clip-path="url(#clip1_1144_672)">
<rect width="180" height="180" fill="#363636"/>
<path d="M148.576 87.5769H160.312V102.656H141.672V96.5883H154.244V93.6451H142.508V78.4565H145.56L146.432 75.9856L159.985 80.673L158.023 86.3778L148.576 83.1439V87.5769Z" fill="white"/>
<path d="M127.427 87.5769H139.164V102.656H120.523V96.5883H133.096V93.6451H121.359V78.4565H124.411L125.283 75.9856L138.837 80.673L136.875 86.3778L127.427 83.1439V87.5769Z" fill="white"/>
<path d="M116.348 78.4565H117.765V102.656H101.159V80.5277L101.123 80.455L115.367 75.5859L116.348 78.4565ZM107.191 96.5883H111.697V83.2529L107.191 84.779V96.5883Z" fill="white"/>
<path d="M96.512 78.4565H97.9291V102.656H81.3234V80.5277L81.2871 80.455L95.5309 75.5859L96.512 78.4565ZM87.3553 96.5883H91.861V83.2529L87.3553 84.779V96.5883Z" fill="white"/>
<path d="M78.1027 102.657H74.7961L73.052 104.619L67.3472 99.5679V102.657H61.3153V99.0956L55.1018 104.619L53.3577 102.657H50.5234V78.4565H56.5916V95.1712L61.3153 90.9926V78.4565H67.3472V91.4649L72.0345 95.6073V78.4565H78.1027V102.657Z" fill="white"/>
<path d="M47.2668 102.657H43.9602L42.216 104.619L36.5112 99.5679V102.657H30.4794V99.0956L24.2659 104.619L22.5217 102.657H19.6875V78.4565H25.7557V95.1712L30.4794 90.9926V78.4565H36.5112V91.4649L41.1986 95.6073V78.4565H47.2668V102.657Z" fill="white"/>
</g>
</g>
<defs>
<clipPath id="clip0_1144_672">
<rect width="180" height="180" fill="white"/>
</clipPath>
<clipPath id="clip1_1144_672">
<rect width="180" height="180" fill="white"/>
</clipPath>
</defs>
</svg>
